<svg id="romance" class="category-icon" xmlns="http://www.w3.org/2000/svg" xmlns:xlink="http://www.w3.org/1999/xlink" viewBox="0,0,100,100" xmlns:inkpad="http://taptrix.com/inkpad/svg_extensions" version="1.1">
<g class="icon-background">
<path d="M49.9112+0.860454L49.9112+0.860454C76.9633+0.860454+98.8934+22.7905+98.8934+49.8426L98.8934+50.4089C98.8934+77.461+76.9633+99.391+49.9112+99.391L49.9112+99.391C22.8591+99.391+0.92906+77.461+0.92906+50.4089L0.92906+49.8426C0.92906+22.7905+22.8591+0.860454+49.9112+0.860454Z" />
</g>
<g class="icon-foreground">
<path d="M24.4725+64.9736C23.9954+64.8864+23.5825+64.812+23.1678+64.7402C21.7699+64.4966+20.4216+64.0905+19.1161+63.5476C17.3172+62.8003+15.6535+61.8231+14.1325+60.6039C11.7565+58.687+9.88925+56.3675+8.55891+53.6188C7.53893+51.5104+6.90454+49.2909+6.67883+46.9611C6.61043+46.26+6.5805+45.5538+6.57281+44.845C6.55742+43.4566+6.57879+42.0621+6.57452+40.6728C6.57281+39.581+6.64206+38.4917+6.81733+37.4145C7.14992+35.3531+7.77404+33.3764+8.71879+31.5092C10.1227+28.7271+12.0463+26.3717+14.5249+24.4813C17.4258+22.2781+20.6773+20.9075+24.3083+20.4527C25.3719+20.321+26.4381+20.2868+27.5051+20.2808C30.8549+20.2791+34.2029+20.2808+37.551+20.2808C39.567+20.2791+41.5839+20.2774+43.6016+20.2731C45.1782+20.2731+46.7479+20.3997+48.2869+20.7434C50.0259+21.1315+51.6931+21.7275+53.2722+22.5687C56.5767+24.3231+59.1741+26.818+61.085+30.0318C62.6256+32.6215+63.508+35.4284+63.8089+38.4199C63.8918+39.2612+63.9123+40.1102+63.9235+40.9575C63.9423+42.1886+63.9277+43.4164+63.9277+44.6484C63.9294+45.942+63.8354+47.2287+63.5994+48.5C62.9394+52.0909+61.4039+55.2689+59.0253+58.0355C57.0469+60.3363+54.6556+62.0761+51.8923+63.3227C50.338+64.0246+48.7178+64.506+47.0446+64.8001C45.9939+64.983+44.9286+65.0865+43.8556+65.0891C43.1921+65.0891+42.5244+65.1087+41.8601+65.0865C41.4685+65.0685+41.1829+65.1848+40.9136+65.4849C39.9706+66.5357+39.001+67.5617+38.0435+68.5953C35.6273+71.1978+33.2095+73.7952+30.7933+76.3961C30.1521+77.0886+29.3809+77.5204+28.4319+77.617C27.04+77.7546+25.4985+77.0647+24.8145+75.5103C24.6093+75.0461+24.5076+74.5562+24.5076+74.0423C24.5135+72.5709+24.5058+71.0987+24.5041+69.6273C24.5041+68.2747+24.5093+66.9247+24.5093+65.5721C24.5041+65.3926+24.487+65.2156+24.4725+64.9736ZM28.1412+73.8577C28.3618+73.8577+28.4447+73.6687+28.5618+73.5422C30.6232+71.3304+32.6828+69.1151+34.7441+66.899C36.2686+65.2643+37.7904+63.6245+39.3182+61.9838C39.7534+61.5178+39.7577+61.5178+40.3536+61.5178C41.283+61.5144+42.2097+61.5101+43.1374+61.5178C44.3292+61.5298+45.5099+61.4537+46.6889+61.2391C48.7375+60.8689+50.6517+60.1525+52.419+59.0607C55.4011+57.2199+57.6266+54.6994+59.0228+51.4745C59.8641+49.526+60.324+47.4912+60.3446+45.3666C60.3634+43.6737+60.3463+41.9792+60.3522+40.2838C60.3557+39.2937+60.2505+38.3105+60.0581+37.3418C59.2622+33.3354+57.3214+30.0087+54.1417+27.4258C51.9316+25.6321+49.4095+24.5275+46.6069+24.0632C45.4287+23.8692+44.2394+23.8367+43.0493+23.8409C40.3066+23.8521+37.563+23.8486+34.8219+23.8486C32.098+23.8503+29.3766+23.8247+26.6527+23.8563C23.167+23.8982+19.9685+24.9054+17.1539+26.9727C12.6346+30.2926+10.2945+34.7854+10.1338+40.3906C10.0885+41.9638+10.1184+43.5369+10.1303+45.1109C10.1415+46.9611+10.4646+48.7591+11.0888+50.5058C12.2507+53.7556+14.2581+56.3769+17.0488+58.3904C19.2614+59.9832+21.7374+60.957+24.4409+61.3528C25.401+61.4948+26.3663+61.5247+27.3384+61.5247C27.553+61.5247+27.7821+61.47+27.983+61.6042C28.0942+61.8154+28.0514+62.0402+28.0531+62.2591C28.0591+63.4279+28.0574+64.5992+28.0591+65.7671C28.0608+66.8571+28.0608+67.9464+28.0608+69.0339C28.0591+70.4446+28.0574+71.8562+28.0608+73.2703C28.06+73.4652+28.0223+73.6721+28.1412+73.8577Z" fill-rule="evenodd" />
<path d="M35.2494+55.9511C36.2147+54.9833+41.7224+49.4704+45.1654+46.03C48.251+42.9444+48.1851+38.4498+45.38+35.6601C42.5748+32.8686+38.0392+32.8797+35.2494+35.6866C32.4596+32.8797+27.924+32.8686+25.1189+35.6601C22.3137+38.4498+22.2504+42.9444+25.3335+46.03C28.7764+49.4704+34.2842+54.9833+35.2494+55.9511Z" />
<path d="M92.0563+40.518C92.0606+39.4288+91.9888+38.3378+91.8152+37.2623C91.4809+35.1992+90.8568+33.226+89.9138+31.3553C88.5107+28.5749+86.5862+26.2178+84.1068+24.3291C81.2042+22.1242+77.9544+20.7553+74.3251+20.3005C73.2598+20.1663+72.1962+20.1329+71.1266+20.1304C67.7785+20.1252+64.4305+20.1304+61.0824+20.1287C59.6452+20.1287+58.2097+20.1252+56.7725+20.1227C58.3721+21.1427+59.8179+22.3353+61.114+23.6896C62.0135+23.6896+62.912+23.693+63.8115+23.693C66.5328+23.6965+69.2568+23.6708+71.9782+23.7007C75.4656+23.7418+78.6623+24.7472+81.4786+26.8171C85.998+30.137+88.3363+34.6298+88.4971+40.2384C88.5441+41.8116+88.5142+43.383+88.5031+44.9579C88.4911+46.8063+88.1671+48.6044+87.5446+50.3485C86.381+53.6008+84.3761+56.2239+81.5846+58.233C79.3728+59.8284+76.8942+60.8022+74.1917+61.1964C73.2316+61.3417+72.2663+61.3674+71.2959+61.3674C71.0796+61.3674+70.853+61.3144+70.6495+61.4512C70.5384+61.6623+70.5811+61.8872+70.5811+62.1061C70.5734+63.2748+70.5734+64.4444+70.5734+65.6157C70.5734+66.7024+70.5734+67.7882+70.5734+68.8783C70.5734+70.2907+70.5769+71.704+70.5734+73.1147C70.5734+73.3105+70.6111+73.5199+70.4905+73.7029C70.2699+73.7029+70.1887+73.5165+70.0716+73.3908C68.0085+71.1756+65.9489+68.9638+63.8893+66.7494C62.5991+65.3609+61.309+63.9725+60.0154+62.5823C59.0758+63.4467+58.0686+64.2332+56.9922+64.942C57.2752+64.9745+57.5052+65.0899+57.7224+65.3284C58.6637+66.3809+59.6307+67.4094+60.5934+68.4431C63.0095+71.0465+65.4274+73.6431+67.8418+76.2422C68.483+76.9364+69.2568+77.3664+70.2032+77.4631C71.5934+77.6024+73.1366+76.9108+73.8223+75.3581C74.0258+74.8922+74.1301+74.4057+74.1276+73.8884C74.1216+72.417+74.131+70.9448+74.131+69.4751C74.131+68.1208+74.1276+66.7699+74.1276+65.4199C74.1276+65.2387+74.1464+65.0617+74.1601+64.8197C74.6371+64.7351+75.0518+64.6581+75.4673+64.5863C76.8626+64.3435+78.2118+63.9357+79.519+63.3945C81.3179+62.6473+82.9817+61.6735+84.5001+60.4525C86.876+58.534+88.7433+56.2162+90.0754+53.464C91.0936+51.3574+91.7297+49.1387+91.9563+46.8081C92.0238+46.1061+92.0538+45.4008+92.0623+44.6911C92.0734+43.3027+92.0546+41.9099+92.0563+40.518Z" />
<path d="M70.3845+43.4044C72.2406+43.4044+74.0942+43.4044+75.9503+43.4044C77.4611+43.4044+78.9761+43.4044+80.4868+43.4044C80.7904+43.4044+81.0939+43.4121+81.3957+43.3865C81.8292+43.3531+82.1429+43.0299+82.1797+42.6076C82.2207+42.1895+81.9702+41.8056+81.5521+41.6953C81.3803+41.6457+81.1939+41.6372+81.0144+41.6372C78.5529+41.6329+76.0931+41.6312+73.6317+41.6329C71.6909+41.6329+69.7501+41.6329+67.8093+41.6355C67.8153+42.2237+67.817+42.8162+67.8153+43.4044C68.672+43.4044+69.5287+43.4044+70.3845+43.4044Z" />
<path d="M75.7033+36.2406C75.9914+36.2406+76.2616+36.2286+76.4958+36.0217C77.0011+35.5797+76.8729+34.7769+76.2376+34.5537C76.0358+34.4819+75.8042+34.4708+75.587+34.4708C74.2549+34.4588+72.9255+34.4631+71.596+34.4631C70.0793+34.4631+68.5651+34.4631+67.0501+34.4631C67.1954+35.0462+67.3194+35.6378+67.4237+36.2397C70.181+36.2406+72.9426+36.2406+75.7033+36.2406Z" />
<path d="M67.1219+50.5819C68.1693+50.5845+69.2157+50.5845+70.2622+50.5862C71.9371+50.5862+73.6103+50.5862+75.2852+50.5845C75.5263+50.5845+75.7717+50.5862+76.0094+50.5622C76.4727+50.5126+76.8019+50.1638+76.813+49.7261C76.8258+49.2695+76.4813+48.8899+75.9982+48.836C75.8589+48.8241+75.7169+48.8301+75.5759+48.8301C72.875+48.8284+70.1742+48.8284+67.4716+48.8284C67.4511+48.9489+67.4451+49.0831+67.4203+49.2028C67.3348+49.6696+67.2314+50.1296+67.1219+50.5819Z" />
</g>
</svg>
