<svg xmlns="http://www.w3.org/2000/svg" xmlns:xlink="http://www.w3.org/1999/xlink" version="1.1" x="0px" y="0px" width="100px" height="100px" viewBox="0 0 100 100" enable-background="new 0 0 100 100" xml:space="preserve">
<g id="Captions">
	<rect x="-192" width="185" height="99"/>
	<rect y="-36" width="100" height="30"/>
	<text transform="matrix(1 0 0 1 66 -19.5)" fill="#000000" font-family="'Helvetica'" font-size="2.4">http://thenounproject.com</text>
	<text transform="matrix(1 0 0 1 7.166 -24.5)"><tspan x="0" y="0" fill="#000000" font-family="'Helvetica-Bold'" font-size="6.1578">The Noun Project</tspan><tspan x="1.12" y="4.8" fill="#000000" font-family="'Helvetica-Bold'" font-size="4">Icon Template</tspan></text>
	<text transform="matrix(1 0 0 1 -178.5 10.5)" fill="#000000" font-family="'Helvetica-Bold'" font-size="6.1578">Reminders</text>
	<line fill="#000000" stroke="#FFFFFF" stroke-miterlimit="10" x1="8" y1="-14.5" x2="18" y2="-14.5"/>
	<line fill="#000000" stroke="#FFFFFF" stroke-miterlimit="10" x1="-179" y1="16.5" x2="-162" y2="16.5"/>
	<g>
		<g>
			<g>
				<rect x="-170.802" y="31.318" fill="#000000" width="8.721" height="8.642"/>
				<path fill="#000000" d="M-164.455,42.312h4.747v-4.703h-4.747V42.312z M-159.266,42.749h-5.63V37.17h5.63V42.749      L-159.266,42.749z M-166.221,44.062h8.279v-8.203h-8.279V44.062L-166.221,44.062z M-157.5,44.5h-9.163v-9.079h9.163V44.5      L-157.5,44.5z"/>
				<polygon fill="#000000" points="-166.149,44.133 -166.292,43.991 -158.013,35.787 -157.871,35.929     "/>
			</g>
		</g>
	</g>
	<rect x="-179" y="58" fill="none" width="35" height="32.5"/>
	<text transform="matrix(1 0 0 1 -179 60.1572)"><tspan x="0" y="0" fill="#000000" font-family="'Helvetica-Bold'" font-size="3">Strokes</tspan><tspan x="0" y="5" fill="#000000" font-family="'Helvetica'" font-size="2.4">Try to keep strokes at 4px</tspan><tspan x="0" y="10" fill="#000000" font-family="'Helvetica'" font-size="2.4">Minimum stroke weight is 2px</tspan><tspan x="0" y="14.5" fill="#000000" font-family="'Helvetica'" font-size="2.4">For thicker strokes use even </tspan><tspan x="0" y="17.5" fill="#000000" font-family="'Helvetica'" font-size="2.4">numbers: 6px, 8px etc.</tspan><tspan x="0" y="22" fill="#000000" font-family="'Helvetica-Bold'" font-size="2.4">Remember to expand strokes </tspan><tspan x="0" y="25" fill="#000000" font-family="'Helvetica-Bold'" font-size="2.4">before saving as an SVG </tspan></text>
	<rect x="-136.5" y="58" fill="none" width="35" height="32.5"/>
	<text transform="matrix(1 0 0 1 -136.5 60.1572)"><tspan x="0" y="0" fill="#000000" font-family="'Helvetica-Bold'" font-size="3">Size</tspan><tspan x="0" y="5" fill="#000000" font-family="'Helvetica'" font-size="2.4">Cannot be wider or taller than </tspan><tspan x="0" y="8.5" fill="#000000" font-family="'Helvetica'" font-size="2.4">100px (artboard size)</tspan><tspan x="0" y="13.5" fill="#000000" font-family="'Helvetica'" font-size="2.4">Scale your icon to fill as much of </tspan><tspan x="0" y="16.5" fill="#000000" font-family="'Helvetica'" font-size="2.4">the artboard as possible</tspan></text>
	<rect x="-94" y="58" fill="none" width="35" height="32.5"/>
	<text transform="matrix(1 0 0 1 -94 60.1572)"><tspan x="0" y="0" fill="#000000" font-family="'Helvetica-Bold'" font-size="3">Ungroup</tspan><tspan x="0" y="5" fill="#000000" font-family="'Helvetica'" font-size="2.4">If your design has more than one </tspan><tspan x="0" y="8" fill="#000000" font-family="'Helvetica'" font-size="2.4">shape, make sure to ungroup</tspan></text>
	<rect x="-50" y="58" fill="none" width="35" height="32.5"/>
	<text transform="matrix(1 0 0 1 -50 60.1572)"><tspan x="0" y="0" fill="#000000" font-family="'Helvetica-Bold'" font-size="3">Save as</tspan><tspan x="0" y="5" fill="#000000" font-family="'Helvetica'" font-size="2.4">Save as .SVG and make sure </tspan><tspan x="0" y="8" fill="#000000" font-family="'Helvetica'" font-size="2.4">&#8220;Use Artboards&#8221; is checked</tspan></text>
	<text transform="matrix(1.0074 0 0 1 -125.542 30.5933)" fill="#000000" font-family="'Helvetica'" font-size="2.5731">100px</text>
	<text transform="matrix(1.0074 0 0 1 -41 39)" fill="#000000" font-family="'Helvetica-Bold'" font-size="5.1462">.SVG</text>
	<rect x="-126.514" y="34.815" fill="#000000" width="10.261" height="10.185"/>
	<rect x="-126.477" y="31.766" fill="#000000" width="0.522" height="2.337"/>
	<rect x="-116.812" y="31.766" fill="#000000" width="0.523" height="2.337"/>
	<rect x="-127" y="32.337" fill="#000000" width="11.233" height="0.572"/>
	<g>
		<rect x="-83.805" y="33.844" fill="#000000" width="10.305" height="10.156"/>
		<rect x="-76.809" y="28.707" fill="#000000" width="3.308" height="3.261"/>
	</g>
	<rect x="-178.5" y="22.5" fill="#000000" stroke="#FFFFFF" stroke-miterlimit="10" width="30" height="30"/>
	<rect x="-136.5" y="22.5" fill="#000000" stroke="#FFFFFF" stroke-miterlimit="10" width="30" height="30"/>
	<rect x="-93.5" y="22.5" fill="#000000" stroke="#FFFFFF" stroke-miterlimit="10" width="30" height="30"/>
	<rect x="-49.5" y="22.5" fill="#000000" stroke="#FFFFFF" stroke-miterlimit="10" width="30" height="30"/>
</g>
<g id="Your_Icon">
	<polygon points="58.173,18.143 67.762,12.579 59.588,7.836 50,13.399  "/>
	<polygon points="76.743,28.918 82.726,25.446 82.726,32.39 82.727,32.391 82.727,21.264 77.348,18.143 67.762,23.705  "/>
	<polygon points="76.743,49.531 82.726,46.061 82.726,53.003 82.727,53.003 82.727,41.877 78.156,39.225 68.568,44.787  "/>
	<polygon points="50,34.012 58.981,39.225 68.568,33.661 59.588,28.449  "/>
	<polygon points="50,22.886 41.826,18.143 32.238,23.705 40.412,28.449  "/>
	<polygon points="23.257,28.918 17.273,32.39 17.273,36.572 21.844,39.225 31.431,33.661  "/>
	<polygon points="50,44.437 41.018,39.225 31.431,44.787 40.412,49.999  "/>
	<polygon points="76.743,71.082 82.726,67.61 82.726,74.554 82.727,74.556 82.727,63.428 77.348,60.307 67.762,65.87  "/>
	<polygon points="50,55.562 58.173,60.307 67.762,54.743 59.588,49.999  "/>
	<polygon points="50,65.05 41.826,60.307 32.238,65.87 40.412,70.614  "/>
	<polygon points="23.257,49.531 17.273,53.003 17.273,57.186 22.652,60.307 32.238,54.743  "/>
	<polygon points="50,76.177 58.981,81.39 68.568,75.825 59.588,70.614  "/>
	<polygon points="41.018,81.39 31.431,86.953 40.412,92.164 50,86.601  "/>
	<polygon points="23.257,71.082 17.273,74.554 17.273,78.737 21.844,81.39 31.431,75.825  "/>
	<polygon points="50.001,2.272 40.413,7.836 32.239,12.579 22.653,18.143 17.273,21.264 17.273,32.391 17.274,32.39 23.258,28.918    32.239,23.706 41.827,18.143 50.001,13.399 59.589,7.836  "/>
	<polygon points="67.763,12.579 58.174,18.143 50.001,22.886 40.413,28.449 31.431,33.661 21.844,39.225 17.273,41.877    17.273,53.004 17.274,53.004 23.258,49.532 31.431,44.788 41.019,39.225 50.001,34.012 59.589,28.449 67.763,23.706 77.349,18.143     "/>
	<polygon points="76.744,28.918 68.569,33.661 58.982,39.225 50.001,44.437 40.413,50 32.239,54.744 22.653,60.307 17.273,63.428    17.273,74.557 17.274,74.555 23.258,71.082 32.239,65.871 41.827,60.307 50.001,55.562 59.589,50 68.569,44.788 78.157,39.225    82.727,36.573 82.727,32.39 82.727,25.446  "/>
	<polygon points="67.763,54.744 58.174,60.307 50.001,65.051 40.413,70.615 31.431,75.826 21.844,81.391 31.431,86.953    41.019,81.391 50.001,76.178 59.589,70.615 67.763,65.871 77.349,60.307 82.727,57.186 82.727,53.004 82.727,46.061 76.744,49.532     "/>
	<polygon points="68.569,75.826 58.982,81.391 50.001,86.602 40.413,92.164 50.001,97.729 59.589,92.164 68.569,86.953    78.157,81.391 82.727,78.738 82.727,74.555 82.727,67.611 76.744,71.082  "/>
</g>
</svg>